<svg xmlns="http://www.w3.org/2000/svg" xmlns:xlink="http://www.w3.org/1999/xlink" version="1.1" x="0px" y="0px" viewBox="0 0 100 125" enable-background="new 0 0 100 100" xml:space="preserve"><g><path d="M97.007,78.993L68.014,50l29.149-29.149c0.557-0.557,0.723-1.394,0.422-2.121c-0.302-0.727-1.011-1.201-1.798-1.201H4.213   c-1.075,0-1.946,0.871-1.946,1.946v61.05c0,1.074,0.871,1.945,1.946,1.945h91.574c0.007,0,0.015,0,0.02,0   c1.075,0,1.946-0.871,1.946-1.945C97.753,79.903,97.461,79.35,97.007,78.993z M6.159,78.58V21.421H91.09L63.886,48.624   c-0.364,0.365-0.569,0.86-0.569,1.376s0.205,1.011,0.569,1.376L91.09,78.58H6.159z"/><path d="M57.581,26.744H20.898c-0.736,0-1.409,0.415-1.739,1.073c-0.33,0.657-0.261,1.445,0.178,2.035L34.4,50.081v17.851   l-8.591,2.63c-1.028,0.314-1.605,1.402-1.291,2.43c0.315,1.027,1.404,1.609,2.43,1.291l9.968-3.051   c0.818-0.25,1.376-1.005,1.376-1.86V49.436c0-0.418-0.135-0.826-0.385-1.162L24.773,30.635h19.172l-3.32,4.221   c-0.456-0.131-0.925-0.221-1.412-0.221c-2.823,0-5.12,2.298-5.12,5.123c0,2.824,2.297,5.122,5.12,5.122   c2.825,0,5.124-2.297,5.124-5.122c0-0.887-0.245-1.729-0.665-2.481l5.224-6.642h4.786l-13.272,17.63   c-0.254,0.337-0.391,0.748-0.391,1.17v19.73c0,0.829,0.525,1.566,1.308,1.838l9.379,3.256c0.211,0.073,0.426,0.108,0.638,0.108   c0.806,0,1.559-0.504,1.838-1.309c0.353-1.015-0.185-2.123-1.2-2.476l-8.071-2.802V50.086L59.136,29.86   c0.443-0.589,0.516-1.379,0.187-2.039S58.318,26.744,57.581,26.744z M39.213,40.988c-0.677,0-1.228-0.552-1.228-1.23   c0-0.679,0.551-1.231,1.228-1.231c0.329,0,0.639,0.128,0.873,0.362c0.232,0.231,0.359,0.541,0.359,0.87   C40.445,40.437,39.892,40.988,39.213,40.988z"/></g><text x="0" y="115" fill="#000000" font-size="5px" font-weight="bold" font-family="'Helvetica Neue', Helvetica, Arial-Unicode, Arial, Sans-serif">Created by Fabyano de Tiburi</text><text x="0" y="120" fill="#000000" font-size="5px" font-weight="bold" font-family="'Helvetica Neue', Helvetica, Arial-Unicode, Arial, Sans-serif">from the Noun Project</text></svg>